<?xml version="1.0" encoding="utf-8"?>
<!-- Generator: Adobe Illustrator 23.0.3, SVG Export Plug-In . SVG Version: 6.00 Build 0)  -->
<svg version="1.1" id="Layer_1" xmlns="http://www.w3.org/2000/svg" xmlns:xlink="http://www.w3.org/1999/xlink" x="0px" y="0px"
	 viewBox="0 0 577.1 173.5" style="enable-background:new 0 0 577.1 173.5;" xml:space="preserve">
<style type="text/css">
	.st0{fill:#F8991F;}
	.st1{fill:#FFFFFF;}
</style>
<g>
	<path class="st0" d="M233.5,173.4c-4.3,0-8.6,0.2-12.8-0.1c-5.5-0.3-11-1-16.5-1.7c-12.4-1.4-24.5-4.1-36.4-7.7
		c-30.2-9.2-57.3-24.1-81.2-44.7c-1.2-1-2.4-2.1-3.5-3.1c-0.5-0.5-0.9-1-1.2-1.6c-0.6-1.5,0.3-3.1,1.9-2.9c1.1,0.1,2.3,0.6,3.3,1.1
		c6.9,3.5,13.6,7.3,20.6,10.6c19.8,9.4,40.4,16.4,61.7,21.2c7.7,1.7,15.5,3.2,23.4,4.4c5.6,0.9,11.3,1.3,16.9,2
		c11.7,1.3,23.5,1.6,35.3,1.3c6.4-0.2,12.7-0.7,19.1-1.3c5.6-0.5,11.2-1.1,16.7-1.9c6.5-1,13-2.2,19.4-3.6
		c15.9-3.5,31.5-8.1,46.6-14.1c2.1-0.8,4.2-1.7,6.3-2.5c1.3-0.5,2.7-0.9,4.1-0.4c2.9,0.9,3.9,3.8,2,6.2c-0.6,0.8-1.5,1.5-2.3,2.1
		c-11.8,8.6-24.7,15.3-38.3,20.7c-13.2,5.3-26.8,9.2-40.7,12c-6.2,1.2-12.6,2-18.8,2.9c-4.2,0.6-8.5,1-12.7,1.3
		C242.1,173.5,237.8,173.4,233.5,173.4z"/>
	<g>
		<path class="st1" d="M122.4,17.1C126.7,6.7,134.2,1,145.6,1c11.7-0.1,18.6,6.3,23.1,16.7c0.5-0.9,0.8-1.5,1.1-2.1
			C177.4-0.6,197-2.4,208.4,5.4c6.3,4.3,9.4,10.4,10,17.8c0.3,4.1,0.4,8.2,0.4,12.4c0,20-0.1,39.9,0,59.9c0,3.5-0.5,5.6-5.4,5.4
			c-4.7-0.1-9.5,0-14.2,0c-0.6,0-1.2,0-1.8,0c-2-0.2-3.1-1.4-3.2-3.4c0-0.7,0-1.4,0-2c0-19.4,0-38.9,0-58.3c0-2.3-0.4-4.7-1-6.9
			c-0.9-3.2-3.1-5.2-6.4-5.9c-6.7-1.5-12.8,2-14.7,8.6c-1,3.5-1.2,7.1-1.2,10.7c-0.1,17.1,0,34.2,0,51.4c0,0.8,0,1.7,0,2.5
			c-0.2,2.1-1.3,3.3-3.4,3.5c-0.5,0-1.1,0-1.6,0c-5,0-9.9,0-14.9,0c-0.7,0-1.4,0-2-0.1c-1.6-0.4-2.4-1.4-2.6-3c-0.1-0.7,0-1.4,0-2
			c0-18.6,0.1-37.2-0.1-55.9c0-3-0.5-6-1.3-8.9c-1.3-4.7-4.2-6.8-8.9-7.2c-4.8-0.4-8.5,1.6-10.6,5.7c-1.2,2.4-1.8,4.9-2.1,7.5
			c-0.3,2.8-0.4,5.5-0.5,8.3c0,16.7,0,33.5,0,50.2c0,0.6,0,1.2,0,1.8c-0.1,2.1-1.2,3.3-3.3,3.5c-0.3,0-0.6,0-0.9,0
			c-5.3,0-10.7,0-16,0c-0.6,0-1.2,0-1.8-0.2c-1.4-0.4-2.3-1.3-2.4-2.9c0-0.7,0-1.4,0-2c0-29.2,0-58.4,0-87.6c0-4,0.9-5.5,5.4-5.4
			c4.6,0.1,9.2,0,13.7,0c3,0,4.2,1.2,4.2,4.2c0,2.6,0,5.1,0,7.7c0,0.7,0.1,1.4,0.1,2.2C122.1,17,122.2,17,122.4,17.1z"/>
		<path class="st1" d="M290.4,89.3c-1.1,1.1-2.1,2-3.1,2.9c-4.6,4.3-9.8,7.7-16.1,9c-5.6,1.1-11.2,1.5-16.8,0.3
			c-9.9-2-16.3-7.9-19-17.6c-1.7-6.2-1.7-12.5-0.1-18.7c2.6-9.6,8.8-16,17.7-20c5.6-2.5,11.6-3.6,17.6-4.5
			c5.3-0.7,10.6-1.2,16.1-1.9c0.2-2.6,0.2-5.2,0-7.8c0-0.8-0.2-1.6-0.3-2.5c-0.7-4.9-3.7-8.1-8.6-9.2c-3.7-0.8-7.3-0.3-10.7,1.3
			c-3.2,1.6-5.3,4.1-6.4,7.5c-0.2,0.7-0.3,1.5-0.6,2.2c-0.7,2-1.8,2.8-3.9,2.6c-3.3-0.3-6.6-0.7-9.8-1c-1.9-0.2-3.9-0.4-5.8-0.7
			c-2.8-0.4-3.8-1.7-3.2-4.5c2.1-10.3,7.9-17.6,17.4-22.1c7.4-3.5,15.3-4.6,23.4-4.5c6.1,0.1,12.1,1.2,17.7,3.6
			c9.9,4.2,15,11.8,15.7,22.5c0.2,3,0.3,6,0.3,9c0,10.5,0.1,21,0,31.5c-0.1,5.6,1.5,10.5,4.9,14.9c0.7,0.9,1.5,1.9,2.1,2.9
			c1.2,2,0.9,3.3-0.8,4.8c-4.1,3.6-8.3,7.2-12.4,10.8c-2.4,2.1-3.9,2.1-6.3,0c-2.7-2.3-5-4.9-7-7.9
			C291.8,91.2,291.1,90.3,290.4,89.3z M286.8,53.5c-4.4-0.6-12,0.5-16.3,2.2c-8.8,3.6-12.8,13.4-8.9,22.2c1.7,3.9,4.8,6,9.1,6.2
			c3.7,0.1,6.7-1.2,9.4-3.7c2.8-2.6,4.6-5.9,5.6-9.6C287.2,65.1,286.9,59.4,286.8,53.5z"/>
		<path class="st1" d="M52.7,38.8c0-4,0.4-7.9-0.6-11.7c-1.2-4.7-4.7-7.5-10-8.1c-3.2-0.3-6.3,0.2-9.2,1.7c-3.2,1.7-5.4,4.3-6.4,7.7
			c-0.2,0.6-0.3,1.3-0.5,2c-0.7,1.9-1.8,2.7-3.7,2.5c-5.4-0.5-10.9-1.1-16.3-1.8c-2.2-0.3-3.2-1.9-2.7-4.3
			c1.2-5.7,3.5-10.8,7.5-15.1c3.1-3.4,6.8-5.9,11-7.6c12.5-5,25.2-5.5,38-1.2c1.5,0.5,2.9,1.2,4.3,1.9c8,4.2,12.4,10.9,13.3,19.9
			c0.3,3.1,0.4,6.1,0.4,9.2c0.1,11,0.1,22.1,0,33.1c0,5.2,1.4,9.9,4.5,14.1c0.8,1.1,1.7,2.1,2.4,3.3c1.3,2,1.1,3.4-0.7,4.9
			c-4.2,3.6-8.4,7.3-12.6,10.9c-2.2,1.9-3.8,1.8-6,0c-2.7-2.2-5-4.8-6.9-7.7c-0.7-1-1.4-2-2.2-3.2c-0.8,0.7-1.4,1.3-2,1.9
			c-2.4,2-4.8,4.1-7.4,5.9c-4.4,3.1-9.4,4.5-14.8,4.9c-4.1,0.3-8.1,0.4-12.1-0.5c-9.2-2-15.4-7.4-18.3-16.4c-2.2-7-2.2-14-0.1-21
			c2.8-9,8.8-15,17.2-18.8c5.7-2.5,11.7-3.7,17.8-4.5c4.3-0.6,8.6-1,13-1.5C50.6,39.2,51.5,39,52.7,38.8z M52.7,53.5
			c-0.5-0.1-1-0.3-1.5-0.2c-2.3,0.1-4.6,0.2-6.9,0.5c-3.3,0.4-6.5,1.2-9.5,2.7c-4.2,2.1-7,5.4-8.1,10c-0.7,3-0.8,5.9-0.1,8.9
			C28,81.6,32.7,84.9,39,84c3.2-0.5,5.7-2.1,7.9-4.5c2.5-2.8,4.1-6.1,4.9-9.7C53.1,64.4,52.6,59,52.7,53.5z"/>
		<path class="st1" d="M527.5,18.7c0.3-0.6,0.6-1.3,1-1.9c1.5-2.5,2.8-5.2,4.5-7.5c3.7-5,8.9-7.5,15-8.1c3.5-0.4,7.1-0.3,10.5,0.6
			c9.5,2.5,15.1,8.8,17.2,18.3c1,4.7,1.4,9.5,1.4,14.3c0,20.8,0,41.6,0,62.4c0,3.1-1.1,4.2-4.2,4.2c-5.3,0-10.5,0-15.8,0
			c-3.4,0-4.5-1-4.5-4.4c0-17.9,0-35.9,0-53.8c0-3.1-0.4-6.3-0.8-9.4c-0.1-1.1-0.5-2.2-0.9-3.2c-2.5-7-10.2-7.9-14.8-5
			c-2.4,1.5-4,3.6-5.1,6.1c-1.7,3.9-2.5,8-2.6,12.3c-0.1,3.8-0.1,7.7-0.1,11.5c0,13.5,0,27,0,40.5c0,0.5,0,1.1,0,1.6
			c-0.1,2.4-1.3,3.8-3.7,3.8c-5.7,0.1-11.4,0.1-17.1,0c-2.3,0-3.6-1.3-3.7-3.7c0-0.4,0-0.8,0-1.1c0-29.4,0-58.9,0-88.3
			c0-0.4,0-0.8,0-1.1c0.1-2.5,1.3-3.7,3.8-3.8c3.2-0.1,6.3,0,9.5,0c2.1,0,4.2,0,6.3,0c2.5,0.1,3.7,1.3,3.7,3.8c0,4,0,7.9,0,11.9
			C527.2,18.6,527.3,18.6,527.5,18.7z"/>
		<path class="st1" d="M409.3,51.7c0.1-9.6,1.6-19,5.7-27.8c4-8.7,10-15.7,18.9-19.7c14-6.3,36.2-4.8,48.1,14.6
			c4,6.5,6.3,13.6,7.5,21c1.6,10.1,1.5,20.2-1.2,30.1c-2.4,8.9-6.5,16.9-13.5,23.2c-8.5,7.7-18.5,10.5-29.8,9.3
			c-13.5-1.5-22.9-9-29.1-20.8c-3.3-6.4-5.1-13.3-5.9-20.4C409.6,58.1,409.5,54.9,409.3,51.7z M464.4,52.6
			c-0.4-5.4-0.7-10.8-1.2-16.1c-0.4-3.6-1.2-7.1-2.7-10.4c-3.5-8-15.5-8.3-19.8-1.7c-1.2,1.8-2.2,3.8-2.8,5.9c-0.8,2.9-1.5,6-1.7,9
			c-0.7,9.6-0.7,19.2,0.8,28.7c0.6,3.7,1.6,7.3,3.6,10.6c1.6,2.5,3.6,4.4,6.6,5.1c4.7,1.1,9.2-0.6,12-4.6c1.9-2.6,2.9-5.6,3.5-8.7
			C463.9,64.4,464.1,58.5,464.4,52.6z"/>
		<path class="st1" d="M367,22.3c-0.8,0-1.6,0-2.4,0c-8.6,0-17.1,0-25.7,0c-0.7,0-1.5,0-2.2-0.1c-1.9-0.2-2.9-1.2-3-3
			c-0.1-4.5-0.1-9,0-13.5c0-1.8,1.1-2.8,3-3c0.6-0.1,1.2-0.1,1.8-0.1c18.5,0,37.1,0,55.6,0c0.6,0,1.2,0,1.8,0.1
			c2,0.2,3.1,1.3,3.1,3.4c0,3.7,0.1,7.4,0,11c0,1.1-0.5,2.3-1.1,3.4c-1,1.8-2.3,3.5-3.5,5.3c-9.5,13.6-19.1,27.3-28.7,40.9
			c-0.4,0.5-0.7,1.1-1.3,2c1.1,0,1.9,0,2.7,0.1c8.4,0.2,16.6,1.2,24.4,4.4c1.9,0.8,3.8,1.7,5.7,2.7c2.4,1.2,3.5,3.2,3.5,5.8
			c0,4.3,0,8.6,0,12.8c0,3.4-2.2,4.8-5.2,3.2c-9.7-4.8-20-7.1-30.8-7c-9.9,0.1-19.3,2.2-28.2,6.6c-0.5,0.3-1.1,0.5-1.6,0.8
			c-2.4,1.3-4.4-0.5-4.6-2.5c-0.1-0.8,0-1.6,0-2.5c0-4,0-8,0-11.9c0-3.4,0.9-6.4,2.9-9.3c10.9-15.5,21.6-31,32.5-46.5
			c0.5-0.8,1.1-1.6,1.6-2.4C367.2,22.7,367.1,22.5,367,22.3z"/>
	</g>
</g>
<path class="st0" d="M357.4,122.3c-5.1,0.5-11,1-16.9,1.5c-2.1,0.2-4.2,0.4-6.3,0.5c-0.8,0.1-1.7,0-1.9-0.8c-0.1-0.6,0.1-1.5,0.5-2
	c0.5-0.7,1.2-1.1,1.8-1.6c5.7-3.8,12-6,18.7-7.3c6-1.2,12-1.6,18.1-1.3c4.2,0.2,8.4,0.7,12.4,2c4.6,1.5,4.6,2.6,4.9,6.5
	c0.2,2.5-0.1,5.1-0.4,7.6c-1.6,10.1-4.9,19.6-10.4,28.3c-2.4,3.7-5.2,7.2-8.6,10c-0.7,0.6-1.4,1.1-2.3,1.4c-1.2,0.5-2.3-0.5-2-1.8
	c0.2-1,0.7-2,1.1-3c2.9-7.3,5.7-14.5,7.6-22.1c0.6-2.3,1.1-4.7,1.4-7c1-7.7-1.9-9.1-7.7-10.1C364.3,122.6,361.2,122.6,357.4,122.3z"
	/>
</svg>
