<?xml version="1.0" encoding="utf-8"?>
<!-- Generator: Adobe Illustrator 23.0.3, SVG Export Plug-In . SVG Version: 6.00 Build 0)  -->
<svg version="1.1" id="Layer_1" xmlns="http://www.w3.org/2000/svg" xmlns:xlink="http://www.w3.org/1999/xlink" x="0px" y="0px"
	 viewBox="0 0 35 35" style="enable-background:new 0 0 35 35;" xml:space="preserve">
<style type="text/css">
	.st0{fill:#FFFFFF;}
</style>
<g>
	<g>
		<g>
			<path class="st0" d="M32.2,14.7L18,4.3c-0.3-0.2-0.6-0.2-0.9,0L2.8,14.7c-0.3,0.3-0.4,0.7-0.2,1.1s0.7,0.4,1.1,0.2L17.5,5.9
				l13.8,10.1c0.1,0.1,0.3,0.2,0.5,0.2c0.2,0,0.5-0.1,0.6-0.3C32.6,15.4,32.5,14.9,32.2,14.7z"/>
		</g>
	</g>
	<g>
		<g>
			<path class="st0" d="M28.4,16.1c-0.4,0-0.8,0.3-0.8,0.8v12.4h-6.2v-6.8c0-2.1-1.7-3.9-3.9-3.9s-3.9,1.7-3.9,3.9v6.8H7.4V16.9
				c0-0.4-0.3-0.8-0.8-0.8s-0.8,0.3-0.8,0.8v13.2c0,0.4,0.3,0.8,0.8,0.8h7.8c0.4,0,0.7-0.3,0.8-0.7c0,0,0,0,0-0.1v-7.6
				c0-1.3,1-2.3,2.3-2.3c1.3,0,2.3,1,2.3,2.3v7.6c0,0,0,0,0,0.1c0,0.4,0.4,0.7,0.8,0.7h7.8c0.4,0,0.8-0.3,0.8-0.8V16.9
				C29.2,16.5,28.8,16.1,28.4,16.1z"/>
		</g>
	</g>
</g>
</svg>
