<?xml version="1.0" encoding="utf-8"?>
<!-- Generator: Adobe Illustrator 23.0.3, SVG Export Plug-In . SVG Version: 6.00 Build 0)  -->
<svg version="1.1" id="Capa_1" xmlns="http://www.w3.org/2000/svg" xmlns:xlink="http://www.w3.org/1999/xlink" x="0px" y="0px"
	 viewBox="0 0 100 100" style="enable-background:new 0 0 100 100;" xml:space="preserve">
<style type="text/css">
	.st0{fill:#E7EEF1;}
	.st1{fill:#E0B394;}
	.st2{fill:#FC8A5E;}
	.st3{fill:#EA7653;}
	.st4{fill:#F7CBA4;}
	.st5{fill:#666666;}
	.st6{fill:#4D4D4D;}
	.st7{fill:#F4AAB6;}
	.st8{fill:#E28B9C;}
	.st9{fill:#F4D8A6;}
	.st10{fill:#D2B4EF;}
</style>
<path class="st0" d="M91.6,67.9c0,6.9-1.7,13.5-4.7,19.2H13.1c-3-5.7-4.7-12.3-4.7-19.2C8.4,44.9,27,26.3,50,26.3
	S91.6,44.9,91.6,67.9z"/>
<g>
	<g>
		<g>
			<path class="st1" d="M50.5,37.7c-2.3-0.1-4.1-2-4.1-4.3c0-2.4,1.9-4.3,4.3-4.3c0.2,0,0.4,0,0.6,0"/>
			<path class="st1" d="M89.7,37.7c2.3-0.1,4.1-2,4.1-4.3c0-2.4-1.9-4.3-4.3-4.3c-0.2,0-0.4,0-0.6,0"/>
		</g>
		<path class="st2" d="M81,54c5.8,1.1,10.2,6.3,10.2,12.5v19.7H48.9V66.4c0-6.2,4.4-11.3,10.2-12.5H81z"/>
		<path class="st3" d="M64.5,54h-5.4c-5.8,1.1-10.2,6.3-10.2,12.5v19.7h5.4V66.4C54.3,60.3,58.7,55.1,64.5,54z"/>
		<path class="st1" d="M81.9,54.2C81.9,54.2,81.9,54.2,81.9,54.2c0,6.6-5.3,11.9-11.8,11.9c-6.5,0-11.8-5.3-11.8-11.8
			c0,0,0-0.1,0-0.1"/>
		<path class="st4" d="M63.8,57.4l-7.6-5.6c-4-2.9-6.2-7.8-5.7-12.8l1.3-13.7c0.9-9.5,8.8-16.7,18.3-16.7l0,0
			c9.5,0,17.4,7.2,18.3,16.7l1.3,13.7c0.5,5-1.7,9.8-5.7,12.8l-7.6,5.6C72.6,60.1,67.6,60.1,63.8,57.4z"/>
		<path class="st1" d="M55.2,41.8c-0.1,2.2,0.6,4.3,2,6l8,9.8c0.4,0.5,0.9,0.9,1.4,1.2c-1-0.3-1.9-0.8-2.7-1.4l-7.6-5.6
			c-4-2.9-6.2-7.8-5.7-12.8l1.3-13.7c0.9-9.4,8.7-16.5,18-16.7C64.1,8.8,57.6,14.2,57.2,20L55.2,41.8z"/>
		<path class="st5" d="M95.2,25.5c0,0-8.2-9.8-18.7-5.5c-5.3,2.1-8.9,2-11.6,0.8c-0.1,0-0.1-0.1-0.2-0.1c-0.1,0-0.1-0.1-0.2-0.1
			c-0.6-0.3-1.1-0.6-1.5-0.9c0,0,0,0,0,0.1c-2.1,5.4-11.1,6-11.1,6s-4.1-6.5-1.8-11.5c1.8-4,6.4-8.2,14.4-9.8
			c2.1-0.4,4.4-0.6,6.9-0.6C83.5,3.7,95.2,11.9,95.2,25.5z"/>
		<path class="st6" d="M64.4,4.3c0,0-9.5,10-1.4,15.4c-2.1,5.4-11.1,6-11.1,6s-4.1-6.5-1.8-11.5C51.7,10.1,56.4,5.9,64.4,4.3z"/>
		<g>
			<rect x="83.1" y="77" class="st4" width="8.2" height="9.1"/>
			<rect x="48.9" y="77" class="st4" width="8.2" height="9.1"/>
		</g>
		<rect x="48.9" y="77" class="st1" width="5.4" height="9.1"/>
		<path d="M60.2,36.5v2.2c0,0.9,0.7,1.6,1.6,1.6s1.6-0.7,1.6-1.6v-2.2c0-0.9-0.7-1.6-1.6-1.6S60.2,35.6,60.2,36.5z"/>
		<path d="M81.5,32.8c0.4,0,0.8-0.2,1.2-0.5c0.6-0.6,0.6-1.7,0-2.3c-1.2-1.2-2.7-1.8-4.3-1.8c-1.6,0-3.2,0.6-4.3,1.8
			c-0.6,0.6-0.6,1.7,0,2.3c0.6,0.6,1.7,0.6,2.3,0c0.5-0.5,1.3-0.8,2-0.8c0.8,0,1.5,0.3,2,0.8C80.7,32.6,81.1,32.8,81.5,32.8z"/>
		<path d="M65,32.8c0.4,0,0.8-0.2,1.2-0.5c0.6-0.6,0.6-1.7,0-2.3c-1.2-1.2-2.7-1.8-4.3-1.8s-3.2,0.6-4.3,1.8c-0.6,0.6-0.6,1.7,0,2.3
			c0.6,0.6,1.7,0.6,2.3,0c0.5-0.5,1.3-0.8,2-0.8c0.8,0,1.5,0.3,2,0.8C64.2,32.6,64.6,32.8,65,32.8z"/>
		<path d="M76.7,36.5v2.2c0,0.9,0.7,1.6,1.6,1.6s1.6-0.7,1.6-1.6v-2.2c0-0.9-0.7-1.6-1.6-1.6S76.7,35.6,76.7,36.5z"/>
		<path d="M70.1,51.9c1.7,0,3.5-0.7,4.8-2c0.6-0.6,0.6-1.7,0-2.3c-0.6-0.6-1.7-0.6-2.3,0c-1.3,1.4-3.5,1.4-4.9,0
			c-0.6-0.6-1.7-0.6-2.3,0c-0.6,0.6-0.6,1.7,0,2.3C66.6,51.2,68.4,51.9,70.1,51.9z"/>
		<path d="M71.5,43.9c0.9,0,1.6-0.7,1.6-1.6v-5.6c0-0.9-0.7-1.6-1.6-1.6s-1.6,0.7-1.6,1.6v3.9h-1.1c-0.9,0-1.6,0.7-1.6,1.6
			c0,0.9,0.7,1.6,1.6,1.6L71.5,43.9L71.5,43.9z"/>
		<path d="M86.6,6.5c-0.8-0.5-1.8-0.3-2.3,0.5c-0.5,0.8-0.3,1.8,0.5,2.3c4.5,2.9,7.3,7.2,8.4,12.1c-0.7-0.6-1.6-1.1-2.6-1.7
			c-4.9-2.8-10-3.2-14.8-1.3c-6.7,2.7-10.1,1.2-12-0.1c-0.5-0.4-1.1-0.8-1.6-1.4c-0.6-0.6-1.7-0.6-2.3,0c-0.6,0.6-0.6,1.7,0,2.3
			c0.3,0.3,0.6,0.6,0.9,0.8c-1.7,2.4-5.8,3.5-8.2,3.8c-0.9-1.8-2.7-5.9-1.2-9.1c3.1-7,12.6-9.5,19.8-9.5c3.4,0,6.9,0.7,9.9,2
			c0.8,0.4,1.8,0,2.2-0.9c0.4-0.8,0-1.8-0.9-2.2C79,2.8,75.1,2,71.3,2C58.2,2,50.9,7.9,48.4,13.4c-2.2,5,0.7,10.8,1.7,12.6l-0.1,1.4
			c-2.9,0.4-5.2,2.9-5.2,5.9c0,2.7,1.7,4.9,4.1,5.7c-0.5,5.5,2,10.9,6.4,14.1l0.3,0.3c-5,2.3-8.3,7.3-8.3,13v19.7c0,0.1,0,0.2,0,0.3
			v0c0,0.9,0.7,1.6,1.6,1.6c0.4,0,0.7-0.1,1-0.3c0.4-0.3,0.7-0.8,0.7-1.3v-2h0v-5.8h4.9v7.8c0,0.9,0.7,1.6,1.6,1.6
			c0.9,0,1.6-0.7,1.6-1.6v-2.6h0V69.1c0-0.9-0.7-1.6-1.6-1.6s-1.6,0.7-1.6,1.6v6.2h-4.9v-8.9c0-4.3,2.5-8.2,6.3-10
			c0.2,1.5,0.7,2.9,1.4,4.2c0.3,0.5,0.9,0.9,1.4,0.9c0.3,0,0.5-0.1,0.8-0.2c0.8-0.4,1.1-1.4,0.7-2.2c-0.4-0.7-0.7-1.5-0.9-2.3
			l2.6,1.9c2.2,1.6,4.7,2.4,7.2,2.4s5.1-0.8,7.2-2.4l2.6-1.9c-1.1,4.4-5.1,7.6-9.8,7.6c-2.3,0-4.5-0.8-6.3-2.2
			c-0.7-0.6-1.7-0.5-2.3,0.3c-0.6,0.7-0.4,1.7,0.3,2.3c2.4,1.9,5.3,2.9,8.4,2.9c6.7,0,12.2-4.9,13.3-11.3c0.5,0.2,1,0.5,1.4,0.8
			c0.3,0.2,0.6,0.3,0.9,0.3c0.5,0,1-0.3,1.4-0.7c0.5-0.8,0.3-1.8-0.4-2.3c-0.6-0.4-1.3-0.8-2-1.1l0.3-0.3c4.4-3.2,6.9-8.7,6.4-14.1
			c2.4-0.8,4.1-3,4.1-5.7c0-3-2.3-5.6-5.2-5.9L90,25.5c-0.1-0.9-0.9-1.6-1.8-1.5c-0.9,0.1-1.6,0.9-1.5,1.8l1.3,13.4
			c0.4,4.4-1.5,8.7-5.1,11.3L75.4,56c-3.2,2.3-7.4,2.3-10.6,0l-7.6-5.6c-3.5-2.6-5.5-6.9-5.1-11.3l1.2-12.1
			c2.5-0.4,7.7-1.6,10.3-5.2c3.7,1.9,8.1,1.7,13.5-0.5c3.9-1.6,7.8-1.2,11.8,1c3.1,1.7,5,4,5.1,4c0.3,0.4,0.8,0.6,1.3,0.6
			c0.2,0,0.4,0,0.6-0.1c0.7-0.2,1.1-0.9,1.1-1.5C96.9,17.6,93.2,10.8,86.6,6.5z M49.2,35.5C48.5,35,48,34.2,48,33.3
			c0-1.1,0.7-2,1.6-2.5L49.2,35.5z M92.1,33.3c0,0.9-0.4,1.7-1.1,2.2l-0.4-4.7C91.5,31.3,92.1,32.2,92.1,33.3z"/>
		<path d="M92.9,80.5v5.9c0,0.6-0.3,1-0.7,1.3c-0.3,0.2-0.6,0.3-1,0.3s-0.7-0.1-1-0.3c-0.3-0.2-0.5-0.4-0.6-0.8c0,0,0,0,0-0.1
			c-0.1-0.2-0.1-0.3-0.1-0.5v-1.5l0-0.4v-5.8h-4.9v4.6h0v3.2c0,0.6-0.3,1-0.7,1.3c-0.3,0.2-0.6,0.3-1,0.3c-0.4,0-0.7-0.1-1-0.3
			c-0.3-0.2-0.5-0.5-0.6-0.8c-0.1-0.2-0.1-0.3-0.1-0.5V69.1c0-0.9,0.7-1.6,1.6-1.6c0.9,0,1.6,0.7,1.6,1.6v6.2h4.9v-8.9
			c0-2.2-0.6-4.3-1.8-6.1c-0.5-0.8-0.3-1.8,0.5-2.3c0.8-0.5,1.8-0.3,2.3,0.5c1.5,2.3,2.4,5.1,2.4,7.9v13.8
			C92.9,80.3,92.9,80.4,92.9,80.5z"/>
		<path d="M50.6,80.5v3.9h0v-4.2C50.6,80.3,50.6,80.4,50.6,80.5z"/>
		<g>
			<path class="st1" d="M8.7,40.9c-2.2-0.1-3.9-1.9-3.9-4.1c0-2.3,1.8-4.1,4.1-4.1c0.2,0,0.4,0,0.6,0"/>
			<path class="st1" d="M49.2,40.9c2.2-0.1,3.9-1.9,3.9-4.1c0-2.3-1.8-4.1-4.1-4.1c-0.2,0-0.4,0-0.6,0"/>
			<path class="st7" d="M36,58.3l-0.3,0.2l-1.3,1c-3.3,2.4-7.7,2.4-10.9,0l-1.1-0.8l-0.2-0.2l-0.3-0.2H36z"/>
			<path class="st7" d="M47.3,70.1v16h-4.5V72.7c0-0.9-0.7-1.6-1.6-1.6c-0.9,0-1.6,0.7-1.6,1.6v10.7h0v2.7H18.3v-3h0V72.7
				c0-0.9-0.7-1.6-1.6-1.6c-0.9,0-1.6,0.7-1.6,1.6v13.4h-4.5v-6.4c0-0.5-0.2-0.9-0.5-1.2c-0.3-0.3-0.7-0.5-1.1-0.5h0v-2.7
				c0.9,0,1.6-0.7,1.6-1.6v-3.6c0-4,2.3-7.6,5.8-9.3c0.1,0.6,0.2,1.1,0.4,1.7c1.7,5.2,6.5,8.9,12.2,8.9c5.2,0,9.8-3.1,11.8-7.8
				c0.4-0.8,0-1.8-0.9-2.2c0,0-0.1,0-0.1,0c-0.8-0.3-1.7,0.1-2.1,0.9c-1.5,3.5-4.9,5.8-8.8,5.8c-4.5,0-8.3-3.1-9.3-7.3l1.9,1.4
				c2.2,1.6,4.8,2.4,7.4,2.4c2.6,0,5.2-0.8,7.4-2.4l2.9-2.1c0.2,0.1,0.5,0.1,0.7,0.2C44.3,61.5,47.3,65.5,47.3,70.1z"/>
			<path class="st8" d="M23.7,58.3h-5.1C13.1,59.4,9,64.3,9,70.1v15.9H14V70.1C14,64.3,18.2,59.4,23.7,58.3z"/>
			<path class="st1" d="M40.1,58.5C40.1,58.6,40.1,58.6,40.1,58.5c0,6.3-5,11.3-11.2,11.3c-6.2,0-11.2-5-11.2-11.2c0,0,0,0,0-0.1
				H40.1z"/>
			<path class="st4" d="M22.5,60.8l-7.5-5.5c-4.3-3.2-6.6-8.4-6-13.7l1-8.7c1.1-9.7,9.3-17.1,19-17.1l0,0c9.7,0,17.9,7.4,19,17.1
				l1,8.7c0.6,5.3-1.7,10.6-6,13.7l-7.5,5.5C31.6,63.6,26.4,63.6,22.5,60.8z"/>
			<path class="st1" d="M29,15.8L29,15.8c-9.7,0-17.9,7.4-19,17.1l-1,8.7c-0.6,5.3,1.7,10.6,6,13.7l7.5,5.5c1.9,1.4,4.2,2.1,6.4,2.1
				c-1.7,0-3.4-0.7-4.9-2.1l-5.7-5.5c-3.3-3.2-5.1-8.4-4.6-13.7l0.7-8.7C15.3,23.2,21.5,15.8,29,15.8L29,15.8L29,15.8z"/>
			<g>
				<path class="st9" d="M40,19.4c-1.2,2-3.2,4.9-6.4,7.5c-4.9,4-12.5,7.1-23.4,4.1c1.9-8.7,9.6-15.1,18.7-15.1
					C33.1,15.8,36.9,17.1,40,19.4z"/>
				<path class="st9" d="M48,33.7c-9.7,1-14.3-6.7-14.4-6.9c3.2-2.6,5.2-5.5,6.4-7.5c0.6,0.4,1.1,0.9,1.7,1.4
					c3.4,3.1,5.7,7.3,6.2,12.2L48,33.7z"/>
			</g>
			<g>
				<path class="st10" d="M40.7,25.1l3.1,6.9c0.9,2.1,3.8,2.4,5.2,0.6l3.6-4.9c1.4-1.9,0.2-4.6-2.1-4.8l-7.5-0.8l-5.2-3.8l-3.1-6.9
					c-0.9-2.1-3.8-2.4-5.2-0.6l-3.6,4.9c-1.4,1.9-0.2,4.6,2.1,4.8l7.5,0.8L40.7,25.1z"/>
				<ellipse class="st10" cx="39.1" cy="21.7" rx="3.7" ry="3.7"/>
			</g>
			<path d="M36.8,38.4c-1.6,0-3.1,0.6-4.2,1.7c-0.6,0.6-0.6,1.7,0,2.3c0.6,0.6,1.7,0.6,2.3,0c0.5-0.5,1.1-0.8,1.8-0.8
				s1.4,0.3,1.8,0.8c0.3,0.3,0.7,0.5,1.2,0.5c0.4,0,0.8-0.2,1.2-0.5c0.6-0.6,0.6-1.7,0-2.3C39.8,39,38.3,38.4,36.8,38.4z"/>
			<path d="M25.3,42.4c0.6-0.6,0.6-1.7,0-2.3c-1.1-1.1-2.6-1.7-4.2-1.7c-1.6,0-3.1,0.6-4.2,1.7c-0.6,0.6-0.6,1.7,0,2.3
				c0.6,0.6,1.7,0.6,2.3,0c0.5-0.5,1.1-0.8,1.8-0.8c0.7,0,1.4,0.3,1.8,0.8c0.3,0.3,0.7,0.5,1.2,0.5C24.6,42.9,25,42.8,25.3,42.4z"/>
			<path d="M31.2,50.9c-1.2,1.2-3.3,1.2-4.5,0c-0.6-0.6-1.7-0.6-2.3,0c-0.6,0.6-0.6,1.7,0,2.3c1.2,1.2,2.8,1.9,4.6,1.9
				c1.7,0,3.4-0.7,4.6-1.9c0.6-0.6,0.6-1.7,0-2.3C32.9,50.3,31.8,50.3,31.2,50.9z"/>
			<path d="M27.8,47h2.2c0.9,0,1.6-0.7,1.6-1.6c0-0.9-0.7-1.6-1.6-1.6h-2.2c-0.9,0-1.6,0.7-1.6,1.6C26.2,46.3,26.9,47,27.8,47z"/>
			<path d="M20,56.9l1.5,1.4h0.5L20,56.9z M20,56.9l1.5,1.4h0.5L20,56.9z"/>
			<path d="M54.7,36.8c0-2.2-1.2-4.1-3.1-5.1l2.1-2.9c1-1.4,1.2-3.1,0.5-4.7s-2.1-2.6-3.8-2.8c-0.9-0.1-1.7,0.6-1.8,1.5v0
				c-0.1,0.9,0.6,1.7,1.5,1.8c0.7,0.1,1,0.6,1.1,0.8c0.1,0.2,0.3,0.8-0.1,1.4l-3.4,4.7l0,0l-0.1,0.2c-0.4,0.6-1,0.6-1.3,0.6
				c-0.2,0-0.8-0.2-1.1-0.8l-2.5-5.7c0.6-0.5,1-1.1,1.3-1.8l0.6,0.1l1.1,0.1c0.1,0,0.1,0,0.2,0c0.8,0,1.5-0.6,1.6-1.5c0,0,0,0,0,0
				c0.1-0.9-0.6-1.7-1.5-1.8l-1.7-0.2c-0.5-2.4-2.7-4.3-5.2-4.3c-0.2,0-0.4,0-0.6,0l-2.5-5.7C35.4,9.2,34,8.1,32.3,8
				C30.6,7.8,29,8.5,28,9.9l-3.6,4.9c-0.4,0.6-0.7,1.2-0.8,1.8v0c0,0.2-0.1,0.4-0.1,0.6c-0.1,0.8,0.1,1.5,0.4,2.2
				c0.7,1.5,2.1,2.6,3.8,2.8l6.2,0.7c0.1,0.4,0.2,0.8,0.4,1.2c-3.8,3.8-10.1,7.5-19.5,6.2c-0.8-0.1-1.7-0.3-2.5-0.5
				c1.3-4,3.9-7.5,7.6-9.7c0.7-0.4,1.5-0.8,2.3-1.2c0.6-0.3,1-0.8,1-1.4c0-0.2,0-0.4-0.1-0.6h0c0,0,0-0.1,0-0.1
				c-0.4-0.8-1.3-1.2-2.2-0.9c-6.4,2.7-11,8.4-12.3,15.2c-3,0.2-5.4,2.7-5.4,5.7c0,2.6,1.7,4.8,4.1,5.5C7,47.9,9.5,53.4,14.1,56.7
				l1.3,0.9c-4.8,2.2-8.1,7-8.1,12.5v3.6c0,0.9,0.7,1.6,1.6,1.6h0c0.9,0,1.6-0.7,1.6-1.6v-3.6c0-4,2.3-7.6,5.8-9.3
				c0.1,0.6,0.2,1.1,0.4,1.7c1.7,5.2,6.5,8.9,12.2,8.9c5.2,0,9.8-3.1,11.8-7.8c0.4-0.8,0-1.8-0.9-2.2c0,0-0.1,0-0.1,0
				c-0.8-0.3-1.7,0.1-2.1,0.9c-1.5,3.5-4.9,5.8-8.8,5.8c-4.5,0-8.3-3.1-9.3-7.3l1.9,1.4c2.2,1.6,4.8,2.4,7.4,2.4
				c2.6,0,5.2-0.8,7.4-2.4l2.9-2.1c0.2,0.1,0.5,0.1,0.7,0.2c4.3,1.3,7.3,5.3,7.3,9.9v16.3c0,0,0,0,0,0c0,0.9,0.7,1.6,1.6,1.6
				c0.9,0,1.6-0.7,1.6-1.6V70.1c0-5.5-3.3-10.3-8.1-12.5l1.3-0.9c4.6-3.3,7.1-8.8,6.8-14.4C53,41.6,54.7,39.4,54.7,36.8z M7.6,38.9
				c-0.7-0.4-1.2-1.2-1.2-2.1c0-1.1,0.7-2,1.7-2.3L7.6,38.9z M39.1,19.7c0.1,0,0.2,0,0.4,0c0.1,0,0.2,0,0.3,0.1
				c0.5,0.2,0.9,0.5,1.2,1c0.2,0.3,0.2,0.6,0.2,1c0,1.1-0.9,2.1-2.1,2.1c-0.1,0-0.2,0-0.3,0c-0.5-0.1-1-0.4-1.3-0.8
				c-0.1-0.1-0.1-0.2-0.2-0.3c-0.1-0.3-0.2-0.6-0.2-0.9C37.1,20.6,38,19.7,39.1,19.7z M34.2,19.6l-6.2-0.7c-0.7-0.1-1-0.6-1.1-0.8
				c-0.1-0.2-0.3-0.8,0.1-1.4l0.6-0.8l0,0v0l3-4.1c0.4-0.6,1-0.6,1.3-0.6c0.2,0,0.8,0.2,1.1,0.8l2.1,4.8v0l0.4,0.9
				C35,18.2,34.5,18.9,34.2,19.6z M41.9,54L36,58.3l-0.3,0.2l-1.3,1c-3.3,2.4-7.7,2.4-10.9,0l-1.1-0.8l-0.2-0.2l-0.3-0.2h-0.5
				L20,56.9L16,54c-3.8-2.8-5.9-7.5-5.4-12.2l1-8.7c0,0,0-0.1,0-0.1c1,0.2,1.9,0.4,2.8,0.5c1.5,0.2,2.9,0.3,4.2,0.3
				c6.2,0,11-2,14.6-4.6c0.9,1.2,2.5,2.8,4.8,4.1c0.8,0.5,1.9,0.2,2.3-0.7c0,0,0-0.1,0-0.1c0.3-0.8,0-1.7-0.7-2.1
				c-1.8-1.1-3.1-2.4-3.9-3.3c0.2-0.2,0.5-0.5,0.7-0.7c0.8,0.4,1.6,0.7,2.6,0.7c0.2,0,0.4,0,0.6,0l2.5,5.7c0.1,0.2,0.2,0.4,0.3,0.6
				c0.8,1.2,2,2,3.5,2.2c0.2,0,0.3,0,0.5,0c0,0,0.1,0,0.1,0l0.7,6.3C47.8,46.6,45.7,51.2,41.9,54z M50.2,38.9l-0.5-4.5
				c1,0.3,1.7,1.2,1.7,2.3C51.5,37.7,51,38.4,50.2,38.9z"/>
			<path d="M42.8,72.7v13.7c0,0.9-0.7,1.6-1.6,1.6c-0.9,0-1.6-0.7-1.6-1.6c0,0,0,0,0,0v-3h0V72.7c0-0.9,0.7-1.6,1.6-1.6
				C42.1,71,42.8,71.8,42.8,72.7z"/>
			<path d="M18.3,72.7v10.4h0v3.3c0,0.9-0.7,1.6-1.6,1.6c-0.9,0-1.6-0.7-1.6-1.6c0,0,0,0,0,0V72.7c0-0.9,0.7-1.6,1.6-1.6
				C17.6,71,18.3,71.8,18.3,72.7z"/>
			<path d="M10.6,79.7v6.7c0,0.9-0.7,1.6-1.6,1.6c-0.9,0-1.6-0.7-1.6-1.6c0,0,0,0,0,0v-6.7c0-0.9,0.7-1.6,1.6-1.6h0
				c0.4,0,0.8,0.2,1.1,0.5C10.4,78.9,10.6,79.3,10.6,79.7z"/>
		</g>
	</g>
	<g>
		<path d="M91.8,94.4c0,0.9-0.7,1.7-1.6,1.7H14.6c-0.9,0-1.6-0.7-1.6-1.6c0-0.9,0.7-1.6,1.6-1.6c0,0,0,0,0,0h3l0,0h72.6
			C91,92.8,91.8,93.5,91.8,94.4z"/>
		<path d="M9.9,96.1L9.9,96.1c-0.9,0-1.6-0.7-1.6-1.6v0c0-0.9,0.7-1.6,1.6-1.6h0c0.9,0,1.6,0.7,1.6,1.6v0
			C11.5,95.3,10.8,96.1,9.9,96.1z"/>
	</g>
	<g>
		<path d="M99,87.8c0,0.9-0.7,1.7-1.6,1.7H2.6c-0.9,0-1.6-0.7-1.6-1.6c0-0.9,0.7-1.6,1.6-1.6c0,0,0,0,0,0h3l0,0h91.7
			C98.3,86.1,99,86.8,99,87.8z"/>
	</g>
</g>
</svg>
