<?xml version="1.0" encoding="utf-8"?>
<!-- Generator: Adobe Illustrator 23.0.3, SVG Export Plug-In . SVG Version: 6.00 Build 0)  -->
<svg version="1.1" id="Capa_1" xmlns="http://www.w3.org/2000/svg" xmlns:xlink="http://www.w3.org/1999/xlink" x="0px" y="0px"
	 viewBox="0 0 100 100" style="enable-background:new 0 0 100 100;" xml:space="preserve">
<style type="text/css">
	.st0{fill:#E7EEF1;}
	.st1{fill:#EDEBED;}
	.st2{fill:#DBD9DC;}
	.st3{fill:#B48764;}
	.st4{fill:#5C414B;}
	.st5{fill:#503441;}
	.st6{fill:#C39772;}
	.st7{fill:#5D5360;}
	.st8{fill:#4B3F4E;}
</style>
<path class="st0" d="M91.6,67.9c0,6.9-1.7,13.5-4.7,19.2H13.1c-3-5.7-4.7-12.3-4.7-19.2C8.4,44.9,27,26.3,50,26.3
	S91.6,44.9,91.6,67.9z"/>
<g>
	<g>
		<path class="st1" d="M50.9,60.8l5.8-5.8c0.8,1.3,1.3,2.9,1.2,4.5l-1.1,27.7h-8.2V66.4C48.5,64.3,49.4,62.3,50.9,60.8z"/>
		<g>
			<path class="st2" d="M73.1,51.7l-8.3-3.3H35.4l-8.3,3.3c-3.2,1.2-5.2,4.4-5.1,7.8l1.1,27.7h53.9l1.1-27.7
				C78.3,56,76.3,52.9,73.1,51.7z"/>
			<rect x="40.7" y="37.7" class="st3" width="18.7" height="16"/>
			<path class="st4" d="M50.1,4.3c-6.7,0.4-10.5,4-10.5,4s-5.6,0-5.6,6.7c0,5.3,1.3,10.6,1.3,10.6h30.7C68.8,11,62.5,3.7,50.1,4.3z"
				/>
			<path class="st5" d="M42.1,20.2C37.2,14,39.6,8.3,39.6,8.3s-5.6,0-5.6,6.7c0,5.3,1.3,10.6,1.3,10.6h6.7V20.2z"/>
			<path class="st6" d="M64.8,24.3h-1.3l-2.6-3.2c-12,2.5-18.3-2.7-18.3-2.7c-0.7,4.2-4.7,7.3-4.7,7.3l-2.5-1.4c0,0,0,0,0,0
				c-0.1,0-0.3,0-0.4,0c-1.3,0.3-2.2,1.5-2.2,2.8v1c0,1.3,0.9,2.5,2.1,2.8c0.3,0.1,0.5,0.1,0.7,0c0.7-0.1,1.2,0.4,1.4,1.1
				c1.1,6.2,6.6,11,13.1,11c6.6,0,12-4.7,13.1-10.9c0.1-0.6,0.7-1.1,1.3-1.1h0.3c1.5,0,2.7-1.2,2.7-2.7V27
				C67.5,25.5,66.3,24.3,64.8,24.3z"/>
			<polygon class="st7" points="52.6,53.8 47.2,53.8 45.9,87.1 53.9,87.1 			"/>
			<polygon class="st8" points="52.9,61 52.6,53.8 47.2,53.8 46.9,61 			"/>
			<g>
				<path class="st1" d="M50.1,53.8l-10.7-9.3l-4,4l6.2,9.3c0.9,1.4,2.9,1.6,4.1,0.4L50.1,53.8z"/>
				<path class="st1" d="M50.1,53.8l10.7-9.3l4,4l-6.2,9.3c-0.9,1.4-2.9,1.6-4.1,0.4L50.1,53.8z"/>
			</g>
			<path class="st3" d="M52.8,42.8c-6.1-1.2-10.7-6.6-10.7-13.1v-9.6c-1.2,3.3-4.3,5.7-4.3,5.7l-2.5-1.4c0,0,0,0,0,0
				c-0.1,0-0.3,0-0.4,0c-1.3,0.3-2.2,1.5-2.2,2.8v1c0,1.3,0.9,2.5,2.1,2.8c0.3,0.1,0.5,0.1,0.7,0c0.7-0.1,1.2,0.4,1.4,1.1
				c1.1,6.2,6.6,11,13.1,11C51,43,51.9,42.9,52.8,42.8z"/>
			<path d="M41.9,66h-5.4c-0.8,0-1.4,0.6-1.4,1.4c0,0.8,0.6,1.4,1.4,1.4h5.4c0.8,0,1.4-0.6,1.4-1.4C43.4,66.7,42.7,66,41.9,66z"/>
			<path d="M73.6,50.7l-7.8-3l-4-4c-0.3-0.3-0.6-0.4-0.9-0.4v-3.2c1.9-2,3.2-4.5,3.8-7.4c0.3,0,0.7,0,1-0.1c1.9-0.4,3.3-2.2,3.3-4.2
				v-1c0-1.2-0.5-2.3-1.3-3.1c1.3-6.9,0.2-12.5-3-16.3c-3.1-3.6-8.2-5.4-14.7-5c-6,0.3-9.8,3.1-11,4.1c-0.7,0.1-1.8,0.3-3,1
				c-1.6,1-3.5,3-3.5,7.1c0,3.6,0.6,6.6,1,8.3c-1.4,0.7-2.3,2.2-2.3,3.9v1c0,2,1.4,3.8,3.3,4.2c0.3,0.1,0.7,0.1,1,0.1
				c0.5,2.9,1.9,5.4,3.8,7.4v3.2c-0.3,0-0.7,0.2-0.9,0.4l-4,4l-7.8,3c-0.7,0.3-1.3,0.6-1.9,1c-0.7,0.4-0.8,1.3-0.4,2
				c0.3,0.4,0.7,0.6,1.2,0.6c0.3,0,0.6-0.1,0.8-0.2c0.4-0.3,0.9-0.5,1.3-0.7l7.3-2.8l5.5,8.3c0.7,1,1.8,1.7,3,1.8c0.1,0,0.3,0,0.4,0
				c0.7,0,1.4-0.2,2-0.5l-1.2,27c0,0.8,0.6,1.5,1.4,1.5c0,0,0,0,0.1,0c0.8,0,1.4-0.6,1.4-1.4l1.1-25h3l1.1,25c0,0.8,0.7,1.4,1.4,1.4
				c0,0,0,0,0.1,0c0.8,0,1.4-0.7,1.4-1.5l-1.2-27c0.6,0.3,1.3,0.5,2,0.5c0.1,0,0.3,0,0.4,0c1.2-0.1,2.3-0.8,3-1.8l5.5-8.3l7.3,2.8
				c1,0.4,1.9,1,2.6,1.8l-5,5c-1.8,1.8-2.8,4.2-2.8,6.7v20.4c0,0.8,0.6,1.4,1.4,1.4c0.8,0,1.4-0.6,1.4-1.4V66.8
				c0-1.8,0.7-3.4,1.9-4.7l4.4-4.4c0.2,0.6,0.3,1.3,0.2,2l-1.1,27.4c0,0.8,0.6,1.5,1.4,1.5c0,0,0,0,0.1,0c0.8,0,1.4-0.6,1.4-1.4
				l1.1-27.4C79.8,55.8,77.4,52.1,73.6,50.7z M50,52.2l-8-7v-2.7c2.3,1.5,5.1,2.3,8,2.3s5.6-0.8,8-2.3v2.7L50,52.2z M35.3,29.8
				c-0.1,0-0.2,0-0.3,0c-0.6-0.1-1-0.7-1-1.4v-1c0-0.7,0.4-1.3,1-1.4c0.5-0.1,0.9,0.1,1.2,0.5c0.3,0.3,0.6,0.6,1,0.7
				c0.6,0.2,1.2,0.1,1.7-0.3c0.9-0.6,1.7-1.4,2.4-2.3c0.5-0.6,0.3-1.5-0.3-2c-0.6-0.5-1.5-0.3-2,0.3c-0.3,0.4-0.7,0.8-1.1,1.2
				c-0.5-0.4-1-0.7-1.6-0.8c-0.4-1.4-1-4.4-1-8.1c0-2.2,0.7-3.7,2-4.6c1-0.7,2.1-0.7,2.1-0.7c0.4,0,0.7-0.1,1-0.4
				c0,0,3.6-3.3,9.6-3.6c5.5-0.3,9.8,1.1,12.4,4c2.6,3,3.4,7.5,2.5,13.2c-0.4,0-0.8,0-1.2,0.1L62.3,20c-0.3-0.7-1-1-1.7-0.8
				c-0.1,0-13.4,3.4-18.9-3.5c-0.5-0.6-1.4-0.7-2-0.2c-0.6,0.5-0.7,1.4-0.2,2c5.7,7.1,16.9,5.5,20.7,4.8l1,2.5
				c0.4,1.1,1.6,1.7,2.7,1.4C64.4,26,64.8,26,65,26c0.6,0.1,1,0.7,1,1.3v1c0,0.7-0.4,1.3-1,1.4c-0.1,0-0.2,0-0.3,0
				c-1.4-0.1-2.7,0.9-2.9,2.3c-1,5.7-6,9.8-11.8,9.8c-5.8,0-10.7-4.1-11.8-9.8C38,30.7,36.7,29.7,35.3,29.8z M43.6,57.8
				c-0.2,0-0.6-0.1-0.9-0.6l-5.6-8.4l2.2-2.2l8.6,7.5l-3.3,3.3C44.2,57.8,43.8,57.8,43.6,57.8z M48.6,59.3l0.1-2l1.3-1.3l1.3,1.3
				l0.1,2L48.6,59.3L48.6,59.3z M57.3,57.3c-0.3,0.4-0.7,0.5-0.9,0.6c-0.2,0-0.6,0-1-0.4l-3.3-3.3l8.6-7.5l2.2,2.2L57.3,57.3z"/>
			<path d="M27.5,53.3l6.5-2.5v-3.1l-7.5,2.9c-3.8,1.5-6.2,5.2-6.1,9.2l1.1,27.4c0,0.8,0.7,1.4,1.4,1.4H23c0.8,0,1.4-0.7,1.4-1.5
				l-1.1-27.4c0-0.7,0.1-1.4,0.2-2l4.4,4.4c1.2,1.2,1.9,2.9,1.9,4.7v20.4c0,0.8,0.6,1.4,1.4,1.4c0.8,0,1.4-0.6,1.4-1.4V66.8
				c0-2.5-1-4.9-2.8-6.7l-5-5C25.6,54.4,26.5,53.7,27.5,53.3z"/>
		</g>
	</g>
	<g>
		<g>
			<path d="M91.8,95.4c0,0.9-0.7,1.6-1.6,1.6H14.6c-0.9,0-1.6-0.7-1.6-1.6c0-0.9,0.7-1.6,1.6-1.6c0,0,0,0,0,0h3l0,0h72.6
				C91,93.8,91.8,94.5,91.8,95.4z"/>
			<path d="M9.9,97L9.9,97c-0.9,0-1.6-0.7-1.6-1.6v0c0-0.9,0.7-1.6,1.6-1.6h0c0.9,0,1.6,0.7,1.6,1.6v0C11.5,96.3,10.8,97,9.9,97z"/>
		</g>
		<g>
			<path d="M99,88.7c0,0.9-0.7,1.6-1.6,1.6H2.6c-0.9,0-1.6-0.7-1.6-1.6c0-0.9,0.7-1.6,1.6-1.6c0,0,0,0,0,0h3l0,0h91.7
				C98.3,87.1,99,87.8,99,88.7z"/>
		</g>
	</g>
</g>
</svg>
