<?xml version="1.0" encoding="utf-8"?>
<!-- Generator: Adobe Illustrator 23.0.3, SVG Export Plug-In . SVG Version: 6.00 Build 0)  -->
<svg version="1.1" id="Layer_1" xmlns="http://www.w3.org/2000/svg" xmlns:xlink="http://www.w3.org/1999/xlink" x="0px" y="0px"
	 viewBox="0 0 36 24.2" style="enable-background:new 0 0 36 24.2;" xml:space="preserve">
<style type="text/css">
	.st0{fill:#FFFFFF;}
</style>
<g>
	<path class="st0" d="M34.1,23.5c-2,1-4.5-0.9-7-7.6c-0.6-1.6-1.1-3.3-1.5-4.9c-0.4,1.6-0.9,3.3-1.5,4.9c-2.1,5.7-4.3,7.9-6.1,7.8
		c-1.8,0.1-3.9-2.1-6.1-7.8c-0.6-1.6-1.1-3.3-1.5-4.9c-0.4,1.6-0.9,3.3-1.5,4.9c-2.5,6.7-5,8.6-7,7.6c-1.8-0.9-2-5.2,1.4-12.9
		c2.3-5.2,4.9-9.3,6.6-10c0,0,0,0,0.1,0c0.1-0.1,0.3-0.1,0.4-0.1c0.1,0,0.3,0,0.4,0.1c1.7,0.7,4.3,4.8,6.6,10.1
		c0.2,0.4,0.4,0.8,0.5,1.2c0.2-0.4,0.3-0.8,0.5-1.2c2.3-5.3,5-9.4,6.6-10.1c0.1-0.1,0.3-0.1,0.4-0.1c0.1,0,0.3,0,0.4,0.1
		c0,0,0,0,0.1,0c1.7,0.7,4.3,4.8,6.6,10C36.1,18.3,35.9,22.6,34.1,23.5z"/>
</g>
</svg>
