<?xml version="1.0" encoding="utf-8"?>
<!-- Generator: Adobe Illustrator 23.0.3, SVG Export Plug-In . SVG Version: 6.00 Build 0)  -->
<svg version="1.1" id="Layer_1" xmlns="http://www.w3.org/2000/svg" xmlns:xlink="http://www.w3.org/1999/xlink" x="0px" y="0px"
	 viewBox="0 0 36 24.2" style="enable-background:new 0 0 36 24.2;" xml:space="preserve">
<style type="text/css">
	.st0{fill:#DC4B9B;}
	.st1{fill:#F79040;}
	.st2{fill:#EF5725;}
</style>
<g>
	<path class="st0" d="M10.4,11c-0.4,1.6-0.9,3.3-1.5,4.9c-2.5,6.7-5,8.6-7,7.6c-1.8-0.9-2-5.2,1.4-12.9c2.3-5.3,5-9.4,6.7-10.1
		c0,0-0.1,0-0.1,0C8.9,1.3,9.1,5.9,10.4,11z"/>
	<path class="st1" d="M25.6,11c-0.4,1.6-0.9,3.3-1.5,4.9c-2.1,5.7-4.3,7.9-6.1,7.8c0.3,0,0.6-0.1,0.9-0.3c1.7-0.9,1.9-4.7-0.9-11.7
		c0.2-0.4,0.3-0.8,0.5-1.2c2.3-5.3,5-9.4,6.7-10.1c0,0,0,0-0.1,0C24,1.3,24.3,5.9,25.6,11z"/>
	<path class="st2" d="M25.6,11C24.3,5.9,24,1.3,25.1,0.5c0,0,0,0,0.1,0c0.1-0.1,0.3-0.1,0.4-0.1c0.1,0,0.3,0,0.4,0.1c0,0,0,0,0.1,0
		C27.1,1.3,26.9,5.9,25.6,11z"/>
	<path class="st0" d="M34.1,23.5c-2,1-4.5-0.9-7-7.6c-0.6-1.6-1.1-3.3-1.5-4.9c1.3-5.1,1.5-9.8,0.5-10.5c0,0,0,0-0.1,0
		c1.7,0.7,4.3,4.8,6.7,10.1C36.1,18.3,35.9,22.6,34.1,23.5z"/>
	<path class="st2" d="M18.9,23.5c-0.3,0.2-0.6,0.2-0.9,0.3c-0.3,0-0.6-0.1-0.9-0.3c-1.7-0.9-2-4.7,0.9-11.7
		C20.9,18.8,20.6,22.6,18.9,23.5z"/>
	<path class="st2" d="M10.4,11C9.1,5.9,8.9,1.3,9.9,0.5c0,0,0,0,0.1,0c0.1-0.1,0.3-0.1,0.4-0.1c0.1,0,0.3,0,0.4,0.1c0,0,0,0,0.1,0
		C11.9,1.3,11.7,5.9,10.4,11z"/>
	<path class="st1" d="M18,23.8c-1.8,0.1-3.9-2.1-6.1-7.8c-0.6-1.6-1.1-3.3-1.5-4.9c1.3-5.1,1.5-9.8,0.5-10.5c0,0,0,0-0.1,0
		c1.7,0.7,4.3,4.8,6.7,10.1c0.2,0.4,0.4,0.8,0.5,1.2c-2.9,7-2.6,10.8-0.9,11.7C17.4,23.6,17.7,23.7,18,23.8z"/>
</g>
</svg>
