<?xml version="1.0" encoding="utf-8"?>
<!-- Generator: Adobe Illustrator 23.0.3, SVG Export Plug-In . SVG Version: 6.00 Build 0)  -->
<svg version="1.1" id="Layer_1" xmlns="http://www.w3.org/2000/svg" xmlns:xlink="http://www.w3.org/1999/xlink" x="0px" y="0px"
	 viewBox="0 0 51.8 23.5" style="enable-background:new 0 0 51.8 23.5;" xml:space="preserve">
<g>
	<path d="M24.4,12.5c0-2.1-0.5-4-1.6-5.7c-1-1.7-2.5-3.1-4.4-4.1c-1.8-1-3.9-1.5-6.3-1.5c-2.3,0-4.4,0.5-6.3,1.5
		C4.1,3.6,2.6,5,1.6,6.7C0.5,8.5,0,10.4,0,12.6c0,2.2,0.5,4.1,1.6,5.9c0.8,1.2,1.7,2.3,2.8,3.1l6.3-2.9c-0.5-0.1-1-0.3-1.5-0.6
		c-0.9-0.5-1.6-1.3-2.1-2.2c-0.5-0.9-0.8-2-0.8-3.3c0-1.2,0.3-2.3,0.8-3.3c0.5-1,1.2-1.7,2.1-2.2c0.9-0.5,1.9-0.8,3-0.8
		c1.1,0,2.1,0.3,3,0.8c0.9,0.5,1.6,1.2,2.1,2.2c0.5,1,0.8,2,0.8,3.3c0,1.1-0.2,2.1-0.7,3L24.4,12.5z"/>
	<path d="M28.1,18.4v5.1h6V14L28.1,18.4z M37.2,11.6h0.7v-0.5L37.2,11.6z M34.4,5.1c0.3-0.4,0.8-0.6,1.5-0.6c0.6,0,1.2,0.2,1.8,0.5
		l1.5-4.2c-0.5-0.3-1-0.5-1.8-0.7C36.6,0.1,35.9,0,35.1,0c-2.2,0-4,0.6-5.2,1.8c-1.2,1.2-1.9,2.8-1.9,4.9v0.4h-2.5v4.5h0.6L36,7.2
		h-2.1V6.8C33.9,6.1,34,5.5,34.4,5.1z"/>
	<path d="M50.1,0.2C49.4,0.1,48.6,0,47.9,0c-2.2,0-4,0.6-5.2,1.8c-0.8,0.8-1.4,1.8-1.7,3.1l9.8-4.5C50.6,0.3,50.3,0.3,50.1,0.2z
		 M46.6,6.8c0-0.7,0.2-1.3,0.5-1.7c0.3-0.4,0.8-0.6,1.5-0.6c0.6,0,1.2,0.2,1.8,0.5l1.5-4.2c0,0,0,0,0,0l-13.5,10v0.8h2.5v11.9h6
		V11.6h3.9V7.2h-4V6.8z"/>
</g>
</svg>
