<?xml version="1.0" encoding="utf-8"?>
<!-- Generator: Adobe Illustrator 23.0.3, SVG Export Plug-In . SVG Version: 6.00 Build 0)  -->
<svg version="1.1" id="Layer_1" xmlns="http://www.w3.org/2000/svg" xmlns:xlink="http://www.w3.org/1999/xlink" x="0px" y="0px"
	 viewBox="0 0 361.9 390.7" style="enable-background:new 0 0 361.9 390.7;" xml:space="preserve">
<style type="text/css">
	.st0{fill:#FFFFFF;}
</style>
<path class="st0" d="M103.2,257h214.5c24.3,0,44.2-19.8,44.2-44.2v-91.2c0-0.2,0-0.3-0.1-0.5c0-0.2-0.1-0.4-0.1-0.6
	c0-0.2-0.1-0.3-0.1-0.5c-0.1-0.2-0.1-0.3-0.2-0.6c-0.1-0.2-0.1-0.3-0.2-0.5c-0.1-0.2-0.1-0.3-0.2-0.5c-0.1-0.2-0.2-0.3-0.2-0.6
	c-0.1-0.2-0.2-0.3-0.2-0.4l-0.2-0.5c-0.1-0.2-0.2-0.2-0.2-0.4c-0.1-0.2-0.2-0.3-0.3-0.5c-0.1-0.2-0.2-0.2-0.3-0.4
	c-0.1-0.2-0.2-0.2-0.3-0.4c-0.1-0.2-0.2-0.2-0.3-0.4c-0.1-0.2-0.2-0.2-0.3-0.3l-0.4-0.4c-0.2-0.1-0.2-0.2-0.4-0.3
	c-0.2-0.1-0.3-0.2-0.5-0.3c-0.2-0.1-0.2-0.2-0.4-0.2c-0.2-0.1-0.3-0.2-0.5-0.3l-1-0.5l-0.5-0.2c-0.2-0.1-0.3-0.1-0.5-0.2
	c-0.2-0.1-0.4-0.2-0.6-0.2c-0.2,0-0.3-0.1-0.4-0.1c-0.2-0.1-0.4-0.1-0.6-0.1c-0.1,0-0.2-0.1-0.3-0.1L80.7,74.4V36.5
	c0-0.4,0-0.8-0.1-1.1c0-0.1,0-0.2-0.1-0.3c0-0.2-0.1-0.5-0.1-0.7c-0.1-0.2-0.1-0.4-0.2-0.6c0-0.2-0.1-0.2-0.1-0.4L80,32.5
	c0-0.1-0.1-0.2-0.1-0.3c-0.1-0.2-0.2-0.4-0.3-0.6c-0.1-0.1-0.1-0.2-0.2-0.3c-0.1-0.2-0.2-0.3-0.3-0.5c-0.1-0.2-0.2-0.2-0.2-0.4
	c-0.1-0.2-0.2-0.2-0.2-0.4c-0.1-0.2-0.2-0.3-0.3-0.5l-0.7-0.7l-0.2-0.2c-0.2-0.2-0.3-0.3-0.6-0.5c-0.1-0.1-0.2-0.2-0.3-0.2
	c-0.2-0.2-0.3-0.2-0.5-0.4c-0.2-0.2-0.5-0.3-0.6-0.4c-0.1-0.1-0.2-0.1-0.2-0.2c-0.3-0.2-0.7-0.3-1-0.5l-59-24.8
	C9.6-0.7,3.3,1.8,0.9,7.3c-2.3,5.5,0.2,11.8,5.8,14.2L59,43.6v236.6c0,22.4,16.8,41,38.5,43.8c-3.9,6.6-6.2,14.2-6.2,22.4
	c0,24.1,19.6,43.6,43.6,43.6s43.6-19.6,43.6-43.6c0-8-2.2-15.6-6-22h97.1c-3.8,6.5-6,14-6,22c0,24.1,19.6,43.6,43.6,43.6
	s43.6-19.6,43.6-43.6s-19.6-43.6-43.6-43.6h-204c-12.5,0-22.6-10.2-22.6-22.6v-29.3C87.2,254.8,94.9,257,103.2,257L103.2,257z
	 M156.9,346.3c0,12.2-9.9,22-22,22c-12.1,0-22-9.9-22-22c0-12.1,9.9-22,22-22C147,324.3,156.9,334.1,156.9,346.3L156.9,346.3z
	 M329.3,346.3c0,12.2-9.9,22-22,22c-12.1,0-22-9.9-22-22c0-12.1,9.9-22,22-22C319.3,324.3,329.3,334.1,329.3,346.3L329.3,346.3z
	 M317.7,235.4H103.2c-12.5,0-22.6-10.2-22.6-22.6V96.1l259.6,35.8v80.9C340.2,225.3,330.1,235.4,317.7,235.4L317.7,235.4z
	 M317.7,235.4"/>
</svg>
