<?xml version="1.0" encoding="utf-8"?>
<!-- Generator: Adobe Illustrator 23.0.3, SVG Export Plug-In . SVG Version: 6.00 Build 0)  -->
<svg version="1.1" id="Layer_1" xmlns="http://www.w3.org/2000/svg" xmlns:xlink="http://www.w3.org/1999/xlink" x="0px" y="0px"
	 viewBox="0 0 481.6 144.6" style="enable-background:new 0 0 481.6 144.6;" xml:space="preserve">
<g>
	<path d="M15.6,144.5c0.1-0.9,0-1.5,0.2-2.1c5.8-21,11.7-42,17.5-63c4-14.2,7.9-28.5,11.9-42.7c0.1-0.2,0.1-0.4,0.2-0.8
		c-15.1,0-30.2,0-45.4,0c0.1-0.5,0.1-0.8,0.2-1.1C3.3,23.7,6.4,12.5,9.5,1.4c0.2-0.9,0.6-1.2,1.6-1.2c44.5,0,88.9,0,133.4,0
		c0.3,0,0.6,0,1.1,0c-3.3,11.9-6.6,23.7-9.9,35.7c-0.5,0-1,0-1.5,0c-14.2,0-28.5,0-42.7,0c-1.1,0-1.5,0.3-1.7,1.3
		c-8.4,30.5-16.9,60.9-25.4,91.3c-0.2,0.8-0.6,1.3-1.5,1.5c-15.2,4.7-30.5,9.5-45.7,14.2C16.7,144.2,16.4,144.3,15.6,144.5z"/>
	<path d="M124.1,110.7c1-3.5,1.9-6.8,2.8-10.1c9.2-33.1,18.4-66.1,27.6-99.2c0.3-0.9,0.5-1.4,1.7-1.4c38.9,0,77.9,0,116.8,0
		c0.3,0,0.7,0,1.2,0c-2.9,10.3-5.7,20.5-8.6,30.8c-24.9,0-49.7,0-74.6,0c-2.1,7.7-4.3,15.3-6.4,23c23.1,0,46,0,69.2,0
		c-0.7,2.5-1.4,4.9-2,7.3c-0.9,3.3-1.8,6.6-2.8,9.9c-0.1,0.5-0.7,1-1.1,1.2c-11.6,3.7-23.3,7.3-35,10.9c-0.6,0.2-1.2,0.2-1.8,0.2
		c-11.1,0-22.3,0-33.4,0c-1,0-1.4,0.2-1.7,1.2c-0.8,3.3-1.8,6.6-2.7,10c-0.2,0.7-0.5,1.1-1.3,1.3c-15.6,4.8-31.3,9.7-46.9,14.6
		C124.9,110.6,124.6,110.6,124.1,110.7z"/>
	<path d="M358.1,79.4c1.9-6.7,3.7-13.3,5.6-20c1.2-4.3,2.4-8.5,3.6-12.8c0.1-0.5,0.6-1.1,1.1-1.2c15.3-6,30.6-12,45.9-18
		c0.1,0,0.2,0,0.4,0c-0.1,0.3-0.1,0.7-0.2,0.9c-9.2,33.1-18.4,66.2-27.6,99.3c-1.5,5.3-2.9,10.5-4.4,15.8c-0.2,0.9-0.6,1.2-1.6,1.2
		c-13.3,0-26.6,0-39.9,0c-0.7,0-1.1-0.1-1.4-0.9c-10-24.9-19.9-49.8-29.9-74.7c0-0.1-0.1-0.2-0.1-0.5c12.6-4.9,25.2-9.9,37.8-14.8
		c3.5,8.7,7,17.3,10.4,25.9C357.9,79.4,358,79.4,358.1,79.4z"/>
	<path d="M481.6,1c-13.3,47.9-26.6,95.7-40,143.5c-14.9,0-29.7,0-44.7,0c0.9-3.3,1.8-6.4,2.7-9.6c10.5-37.7,21-75.5,31.6-113.2
		c0.2-0.5,0.7-1.2,1.2-1.4c16.1-6.4,32.2-12.7,48.3-19C480.9,1.2,481.2,1.1,481.6,1z"/>
	<path d="M343,42.7c-25.7,8-51.3,16-77.2,24c1.1-4.1,2.2-7.8,3.2-11.6c5-17.8,9.9-35.6,14.9-53.4c0.3-1.2,0.7-1.6,2-1.6
		c12.9,0.1,25.8,0.1,38.7,0c1.1,0,1.5,0.4,1.9,1.3c5.3,13.4,10.7,26.8,16.1,40.1C342.7,41.9,342.8,42.3,343,42.7z"/>
	<path d="M244.2,144.5c0.9-3.2,1.7-6.2,2.5-9.2c4.3-15.4,8.6-30.9,12.9-46.3c0.2-0.7,0.5-1.3,1.3-1.6c15.1-5.9,30.1-11.8,45.2-17.7
		c0.2-0.1,0.5-0.2,0.9-0.3c-0.8,2.7-1.5,5.3-2.2,7.9c-6.1,21.9-12.2,43.7-18.2,65.6c-0.4,1.3-0.9,1.6-2.2,1.6
		c-12.8-0.1-25.7,0-38.5,0C245.4,144.5,244.9,144.5,244.2,144.5z"/>
	<path d="M245.4,111.9c-1.3,4.7-2.6,9.3-3.9,13.8c-1.6,5.9-3.3,11.8-4.9,17.6c-0.2,0.8-0.5,1.1-1.4,1.1c-39.5,0-79.1,0-118.6,0
		c-0.2,0-0.4,0-0.7-0.2c0.4-0.2,0.9-0.4,1.3-0.6c26.7-10.5,53.5-21,80.2-31.4c0.6-0.2,1.2-0.4,1.9-0.4c15,0,29.9,0,44.9,0
		C244.6,111.9,244.9,111.9,245.4,111.9z"/>
	<path d="M422.2,0.2c-0.7,2.4-1.3,4.6-1.9,6.8c-1.1,3.9-2.2,7.9-3.3,11.8c-0.1,0.5-0.6,1.1-1.1,1.2c-14.9,4.7-29.8,9.3-44.7,14
		c-0.1,0-0.2,0-0.6,0c0.5-1.8,0.9-3.4,1.4-5.1c2.6-9.2,5.2-18.5,7.7-27.7c0.2-0.7,0.5-1,1.3-1c13.5,0,26.9,0,40.4,0
		C421.7,0.1,421.8,0.1,422.2,0.2z"/>
	<path d="M437.1,0.1c14.1,0,28.1,0,42.1,0c0,0.1,0,0.1,0,0.2c-15.3,4.8-30.6,9.5-46.2,14.4C434.5,9.7,435.8,4.9,437.1,0.1z"/>
</g>
</svg>
