<?xml version="1.0" encoding="utf-8"?>
<!-- Generator: Adobe Illustrator 23.0.3, SVG Export Plug-In . SVG Version: 6.00 Build 0)  -->
<svg version="1.1" id="Layer_1" xmlns="http://www.w3.org/2000/svg" xmlns:xlink="http://www.w3.org/1999/xlink" x="0px" y="0px"
	 viewBox="0 0 35 35" style="enable-background:new 0 0 35 35;" xml:space="preserve">
<style type="text/css">
	.st0{fill:#FFFFFF;}
</style>
<path class="st0" d="M26.3,25L23,23.3l-0.1,0c-0.6-0.3-1.3-0.5-1.9-1.2c0,0,0-0.1-0.1-0.1c0-0.1-0.1-0.1-0.1-0.2c0-0.1,0-0.2,0-0.3
	v-1.6c0.1-0.1,0.2-0.3,0.4-0.5c0.6-0.9,1.1-1.8,1.4-2.8c0.7-0.3,1.1-1,1.1-1.8v-1.9c0-0.5-0.2-0.9-0.5-1.3V9c0-0.1,0-0.5,0-0.9
	c0,0,0-0.1,0-0.1c0-0.3-0.1-0.6-0.3-0.9C23,7,23,7,23,6.9c-0.2-0.4-0.4-0.7-0.7-1.1c-1-1.1-2.6-1.7-4.8-1.7s-3.8,0.6-4.8,1.7
	c-1.2,1.3-1,2.9-1,3.2v2.6c-0.3,0.4-0.5,0.8-0.5,1.3v1.9c0,0.6,0.3,1.1,0.7,1.5c0.4,1.8,1.4,3.1,1.7,3.5v1.6c0,0.5-0.3,0.9-0.7,1.1
	L8.6,25c-1.4,0.8-2.3,2.2-2.3,3.9v2.1h22.4v-2C28.7,27.2,27.8,25.7,26.3,25z M27.7,29.9H7.3v-1.1c0-1.2,0.7-2.4,1.8-3l4.3-2.4
	c0.7-0.4,1.2-1.2,1.2-2v-1.9l-0.1-0.1c0,0-1.2-1.5-1.7-3.4l0-0.2l-0.2-0.1c-0.3-0.2-0.5-0.5-0.5-0.8v-1.9c0-0.3,0.1-0.5,0.3-0.7
	l0.2-0.1V9l0-0.1c0,0-0.2-1.4,0.8-2.4c0.8-0.9,2.2-1.4,4.1-1.4c1.9,0,3.3,0.5,4.1,1.4c0.4,0.5,0.6,1,0.7,1.4c0,0,0,0.1,0,0.1
	c0,0,0,0.1,0,0.1c0,0,0,0.1,0,0.1c0,0,0,0.1,0,0.1c0,0.1,0,0.1,0,0.2v0c0,0.1,0,0.1,0,0.1v0.2c0,0.1,0,0.2,0,0.2l0,3.1l0.2,0.1
	c0.2,0.2,0.3,0.4,0.3,0.7v1.9c0,0.4-0.3,0.8-0.7,0.9l-0.2,0.1l-0.1,0.2c-0.3,1-0.8,1.9-1.4,2.8c-0.1,0.2-0.3,0.4-0.4,0.5l-0.1,0.1v2
	c0,0.1,0,0.2,0,0.4c0,0,0,0.1,0,0.1c0,0.1,0,0.2,0.1,0.3c0,0,0,0,0,0.1c0,0.1,0.1,0.2,0.1,0.3c0,0,0,0,0,0c0.1,0.1,0.2,0.2,0.2,0.4
	l0.1,0.1c0,0,0.4,0.3,0.6,0.4l4.6,2.3c1.2,0.6,1.9,1.8,1.9,3.1V29.9z"/>
</svg>
