<?xml version="1.0" encoding="utf-8"?>
<!-- Generator: Adobe Illustrator 23.0.3, SVG Export Plug-In . SVG Version: 6.00 Build 0)  -->
<svg version="1.1" id="Capa_1" xmlns="http://www.w3.org/2000/svg" xmlns:xlink="http://www.w3.org/1999/xlink" x="0px" y="0px"
	 viewBox="0 0 100 100" style="enable-background:new 0 0 100 100;" xml:space="preserve">
<style type="text/css">
	.st0{fill:#E7EEF1;}
	.st1{fill:#5D5360;}
	.st2{fill:#FAD7A5;}
	.st3{fill:#DEAF73;}
	.st4{fill:#D59F63;}
	.st5{fill:#CD915A;}
	.st6{fill:#FFE1B4;}
	.st7{fill:#6F6571;}
</style>
<g>
	<path class="st0" d="M91.6,67.9c0,6.9-1.7,13.5-4.7,19.2H13.1c-3-5.7-4.7-12.3-4.7-19.2C8.4,44.9,27,26.3,50,26.3
		S91.6,44.9,91.6,67.9z"/>
	<g>
		<path class="st1" d="M69.1,59.5l-7.2-3.1H37.9l-7.2,3.1c-3,1.3-4.9,4.4-4.8,7.7l0.8,19.9h46.4l0.8-19.9
			C74.1,63.9,72.2,60.9,69.1,59.5z"/>
		<rect x="43.2" y="47" class="st2" width="13.4" height="13.4"/>
		<ellipse class="st3" cx="49.9" cy="12.3" rx="8" ry="8"/>
		<ellipse class="st4" cx="49.9" cy="26.3" rx="16" ry="15.4"/>
		<path class="st5" d="M44.5,28.3c-5.3-5.3-6.1-9.9-6-12.8c-2.9,2.8-4.7,6.6-4.7,10.8c0,2.9,0.8,5.6,2.3,7.9L44.5,28.3z"/>
		<path class="st6" d="M65.1,31.1C65,31,64.4,31,64.4,31c-0.7,0-1.4-0.3-1.9-0.8l-1.8-1.4c0,0-9.5,2-18-3.7
			c-0.8,2.4-2.3,4.3-4.9,6.7L35.1,31c0,0,0,0,0,0c-0.1,0-0.3,0-0.4,0c-1.3,0.3-2.2,1.5-2.2,2.8v1c0,1.3,0.9,2.5,2.1,2.8
			c0.3,0.1,0.5,0.1,0.7,0c0.7-0.1,1.2,0.4,1.4,1.1c1.1,6.2,6.6,11,13.1,11c6.5,0,12-4.7,13.1-10.9c0.1-0.7,0.7-1.2,1.4-1.1
			c0.3,0,0.6,0,0.9-0.1c1.2-0.3,2.1-1.5,2-2.8c0-0.6,0-1.2,0-1.2C67.3,32.4,66.3,31.5,65.1,31.1z"/>
		<g>
			<path class="st7" d="M33,67.1l-4.9-5.9c-1.5,1.6-2.4,3.7-2.3,5.9l0.8,19.9h8.5v-14C35.2,70.9,34.4,68.8,33,67.1z"/>
			<path class="st7" d="M66.8,67.1l4.9-5.9c1.5,1.6,2.4,3.7,2.3,5.9l-0.8,19.9h-8.5v-14C64.6,70.9,65.4,68.8,66.8,67.1z"/>
		</g>
		<path class="st2" d="M41.9,36.4v-9.5c-0.9,1.7-2.2,3.2-4.2,5L35.1,31c0,0,0,0,0,0c-0.1,0-0.3,0-0.4,0c-1.3,0.3-2.2,1.5-2.2,2.8v1
			c0,1.3,0.9,2.5,2.1,2.8c0.3,0.1,0.5,0.1,0.7,0c0.7-0.1,1.2,0.4,1.4,1.1c1.1,6.2,6.6,11,13.1,11c0.9,0,1.8-0.1,2.6-0.3
			C46.5,48.2,41.9,42.8,41.9,36.4z"/>
		<g>
			<path class="st7" d="M49.5,60.3l-8.1-8.1l-4,4l5,8.1c0.4,0.7,1.4,0.9,2,0.3L49.5,60.3z"/>
			<path class="st7" d="M49.5,60.3l8.1-8.1l4,4l-5,8.1c-0.4,0.7-1.4,0.9-2,0.3L49.5,60.3z"/>
		</g>
		<path d="M69.9,58.2l-7-3.1l-3.8-3.8c-0.3-0.3-0.6-0.4-0.9-0.4v-2.3c3.3-2.2,5.7-5.6,6.4-9.6c0.4,0,0.8,0,1.1-0.1
			c1.8-0.4,3.2-2.2,3.2-4.2v-1c0-1.5-0.7-2.8-1.8-3.5c0.3-1.3,0.5-2.6,0.5-4c0-5.9-3.2-11.2-8.1-14.2c-0.1-5-4.3-9-9.5-9
			s-9.4,4-9.5,9c-4.8,3-8.1,8.2-8.1,14.2c0,1.3,0.2,2.7,0.5,4c-1.1,0.8-1.8,2.1-1.8,3.6v1c0,2,1.3,3.7,3.2,4.2
			c0.4,0.1,0.8,0.1,1.1,0.1c0.8,4.1,3.2,7.5,6.4,9.6v2.3c-0.3,0-0.7,0.2-0.9,0.4l-3.8,3.8l-7,3.1c-3.6,1.6-5.9,5.2-5.7,9.1l0.8,20
			c0,0.8,0.7,1.4,1.4,1.4c0,0,0,0,0.1,0c0.8,0,1.4-0.7,1.4-1.5l-0.8-20c-0.1-1.3,0.3-2.5,0.9-3.6l3.8,4.5c1.2,1.4,1.8,3.2,1.8,5.1
			v14c0,0.8,0.6,1.4,1.4,1.4c0.8,0,1.4-0.6,1.4-1.4v-14c0-2.5-0.9-5-2.5-6.9l-4-4.8c0.3-0.2,0.7-0.4,1.1-0.6l6.1-2.7l4.3,7
			c0.4,0.7,1.1,1.2,1.9,1.3c0.1,0,0.3,0,0.4,0c0.7,0,1.3-0.2,1.8-0.7l2.7-2.3v23.7c0,0.8,0.6,1.4,1.4,1.4c0.8,0,1.4-0.6,1.4-1.4
			V63.5l2.7,2.3c0.5,0.4,1.1,0.7,1.8,0.7c0.1,0,0.3,0,0.4,0c0.8-0.1,1.5-0.6,1.9-1.3l4.3-7l6.1,2.7c0.4,0.2,0.7,0.4,1.1,0.6l-4,4.8
			c-1.6,1.9-2.5,4.4-2.5,6.9v14c0,0.8,0.6,1.4,1.4,1.4c0.8,0,1.4-0.6,1.4-1.4v-14c0-1.9,0.7-3.7,1.8-5.1l3.8-4.5
			c0.6,1.1,1,2.3,0.9,3.6l-0.8,20c0,0.8,0.6,1.5,1.4,1.5c0,0,0,0,0.1,0c0.8,0,1.4-0.6,1.4-1.4l0.8-20C75.8,63.4,73.5,59.7,69.9,58.2
			z M50,5.8c3.1,0,5.6,1.9,6.4,4.6c-2-0.7-4.1-1.2-6.4-1.2s-4.4,0.4-6.4,1.2C44.4,7.8,46.9,5.8,50,5.8z M38.2,38.4
			C38,37,36.7,36,35.3,36.1c-0.1,0-0.2,0-0.4,0c-0.5-0.1-1-0.7-1-1.4v-1c0-0.7,0.4-1.3,1-1.4c0.5-0.1,0.9,0.1,1.2,0.5
			c0.3,0.3,0.6,0.6,1,0.7c0.6,0.2,1.2,0.1,1.7-0.3c0.9-0.6,1.7-1.4,2.3-2.3c0.5-0.6,0.3-1.5-0.3-2c-0.6-0.5-1.5-0.3-2,0.3
			c-0.3,0.4-0.7,0.8-1.1,1.2c-0.6-0.5-1.4-0.9-2.2-1c-0.3-1.1-0.4-2.2-0.4-3.3c0-7.7,6.6-14,14.7-14c8.1,0,14.7,6.3,14.7,14
			c0,1.1-0.1,2.2-0.4,3.3c-0.4,0-0.8,0.1-1.1,0.2l-1.1-0.9c-0.5-0.4-1.2-0.7-1.9-0.6c-2.1,0.1-12.9,0.4-18.5-6.2
			c-0.5-0.6-1.4-0.7-2-0.2s-0.7,1.4-0.2,2c2.7,3.3,6.7,5.5,11.9,6.6c4,0.8,7.5,0.8,8.9,0.7l1.7,1.4c0.5,0.4,1.1,0.4,1.6,0.1
			c0.2-0.1,1.1-0.3,1.4-0.2c0.6,0.1,1,0.7,1,1.3v1c0,0.7-0.4,1.3-1,1.4c-0.1,0-0.3,0-0.4,0C63.3,36,62,37,61.8,38.4
			c-1,5.7-6,9.8-11.8,9.8C44.2,48.2,39.3,44.1,38.2,38.4z M50,51.1c1.9,0,3.6-0.3,5.3-1v3L50,58.3l-5.3-5.3v-3
			C46.4,50.7,48.1,51.1,50,51.1z M44,63.5l-4.3-7l2.2-2.2l5.9,5.9L44,63.5z M56,63.5l-3.8-3.3l5.9-5.9l2.2,2.2L56,63.5z"/>
		<path d="M44.6,72.3h-4c-0.8,0-1.4,0.6-1.4,1.4c0,0.8,0.6,1.4,1.4,1.4h4c0.8,0,1.4-0.6,1.4-1.4C46.1,73,45.4,72.3,44.6,72.3z"/>
	</g>
	<g>
		<g>
			<path d="M91.8,95.4c0,0.9-0.7,1.6-1.6,1.6H14.6c-0.9,0-1.6-0.7-1.6-1.6c0-0.9,0.7-1.6,1.6-1.6c0,0,0,0,0,0h3l0,0h72.6
				C91,93.8,91.8,94.5,91.8,95.4z"/>
			<path d="M10.3,97H9.5c-0.7,0-1.2-0.6-1.2-1.2V95c0-0.7,0.6-1.2,1.2-1.2h0.8c0.7,0,1.2,0.6,1.2,1.2v0.8C11.5,96.5,11,97,10.3,97z"
				/>
		</g>
		<g>
			<path d="M99,88.7c0,0.9-0.7,1.6-1.6,1.6H2.6c-0.9,0-1.6-0.7-1.6-1.6c0-0.9,0.7-1.6,1.6-1.6c0,0,0,0,0,0h3l0,0h91.7
				C98.3,87.1,99,87.8,99,88.7z"/>
		</g>
	</g>
</g>
</svg>
